<mxfile host="65bd71144e">
    <diagram id="pIsPSVw4wNhW4OB5O9Dt" name="Page-1">
        <mxGraphModel dx="1107" dy="776" grid="1" gridSize="10" guides="1" tooltips="1" connect="1" arrows="1" fold="1" page="1" pageScale="1" pageWidth="850" pageHeight="1100" math="0" shadow="0">
            <root>
                <mxCell id="0"/>
                <mxCell id="1" parent="0"/>
                <mxCell id="184" style="edgeStyle=orthogonalEdgeStyle;rounded=0;orthogonalLoop=1;jettySize=auto;html=1;exitX=0.5;exitY=1;exitDx=0;exitDy=0;entryX=0.5;entryY=0;entryDx=0;entryDy=0;fontSize=9;" edge="1" parent="1" source="165" target="169">
                    <mxGeometry relative="1" as="geometry"/>
                </mxCell>
                <mxCell id="165" value="Layout" style="rounded=0;whiteSpace=wrap;html=1;shadow=1;fontFamily=Lucida Console;" vertex="1" parent="1">
                    <mxGeometry x="140" y="80" width="120" height="40" as="geometry"/>
                </mxCell>
                <mxCell id="166" value="binding" style="rounded=0;whiteSpace=wrap;html=1;shadow=1;fontFamily=Lucida Console;fillColor=#f5f5f5;strokeColor=#666666;fontColor=#333333;" vertex="1" parent="1">
                    <mxGeometry y="160" width="80" height="20" as="geometry"/>
                </mxCell>
                <mxCell id="167" value="0" style="rounded=0;whiteSpace=wrap;html=1;shadow=1;fontFamily=Lucida Console;" vertex="1" parent="1">
                    <mxGeometry y="180" width="80" height="20" as="geometry"/>
                </mxCell>
                <mxCell id="168" value="size" style="rounded=0;whiteSpace=wrap;html=1;shadow=1;fontFamily=Lucida Console;fillColor=#f5f5f5;strokeColor=#666666;fontColor=#333333;" vertex="1" parent="1">
                    <mxGeometry x="80" y="160" width="80" height="20" as="geometry"/>
                </mxCell>
                <mxCell id="169" value="count" style="rounded=0;whiteSpace=wrap;html=1;shadow=1;fontFamily=Lucida Console;fillColor=#f5f5f5;strokeColor=#666666;fontColor=#333333;" vertex="1" parent="1">
                    <mxGeometry x="160" y="160" width="80" height="20" as="geometry"/>
                </mxCell>
                <mxCell id="170" value="stages" style="rounded=0;whiteSpace=wrap;html=1;shadow=1;fontFamily=Lucida Console;fillColor=#f5f5f5;strokeColor=#666666;fontColor=#333333;" vertex="1" parent="1">
                    <mxGeometry x="240" y="160" width="160" height="20" as="geometry"/>
                </mxCell>
                <mxCell id="171" value="16" style="rounded=0;whiteSpace=wrap;html=1;shadow=1;fontFamily=Lucida Console;" vertex="1" parent="1">
                    <mxGeometry x="80" y="180" width="80" height="20" as="geometry"/>
                </mxCell>
                <mxCell id="172" value="1" style="rounded=0;whiteSpace=wrap;html=1;shadow=1;fontFamily=Lucida Console;" vertex="1" parent="1">
                    <mxGeometry x="160" y="180" width="80" height="20" as="geometry"/>
                </mxCell>
                <mxCell id="173" value="VK_SHADER_STAGE_FRAGMENT_BIT" style="rounded=0;whiteSpace=wrap;html=1;shadow=1;fontFamily=Lucida Console;fontSize=9;" vertex="1" parent="1">
                    <mxGeometry x="240" y="180" width="160" height="20" as="geometry"/>
                </mxCell>
                <mxCell id="174" value="1" style="rounded=0;whiteSpace=wrap;html=1;shadow=1;fontFamily=Lucida Console;" vertex="1" parent="1">
                    <mxGeometry y="200" width="80" height="20" as="geometry"/>
                </mxCell>
                <mxCell id="175" value="64" style="rounded=0;whiteSpace=wrap;html=1;shadow=1;fontFamily=Lucida Console;" vertex="1" parent="1">
                    <mxGeometry x="80" y="200" width="80" height="20" as="geometry"/>
                </mxCell>
                <mxCell id="176" value="3" style="rounded=0;whiteSpace=wrap;html=1;shadow=1;fontFamily=Lucida Console;" vertex="1" parent="1">
                    <mxGeometry x="160" y="200" width="80" height="20" as="geometry"/>
                </mxCell>
                <mxCell id="177" value="VK_SHADER_STAGE_VERTEX_BIT" style="rounded=0;whiteSpace=wrap;html=1;shadow=1;fontFamily=Lucida Console;fontSize=9;" vertex="1" parent="1">
                    <mxGeometry x="240" y="200" width="160" height="20" as="geometry"/>
                </mxCell>
                <mxCell id="178" value="2" style="rounded=0;whiteSpace=wrap;html=1;shadow=1;fontFamily=Lucida Console;" vertex="1" parent="1">
                    <mxGeometry y="220" width="80" height="20" as="geometry"/>
                </mxCell>
                <mxCell id="179" value="32" style="rounded=0;whiteSpace=wrap;html=1;shadow=1;fontFamily=Lucida Console;" vertex="1" parent="1">
                    <mxGeometry x="80" y="220" width="80" height="20" as="geometry"/>
                </mxCell>
                <mxCell id="180" value="1" style="rounded=0;whiteSpace=wrap;html=1;shadow=1;fontFamily=Lucida Console;" vertex="1" parent="1">
                    <mxGeometry x="160" y="220" width="80" height="20" as="geometry"/>
                </mxCell>
                <mxCell id="181" value="VK_SHADER_STAGE_FRAGMENT_BIT" style="rounded=0;whiteSpace=wrap;html=1;shadow=1;fontFamily=Lucida Console;fontSize=9;" vertex="1" parent="1">
                    <mxGeometry x="240" y="220" width="160" height="20" as="geometry"/>
                </mxCell>
                <mxCell id="183" style="edgeStyle=orthogonalEdgeStyle;rounded=0;orthogonalLoop=1;jettySize=auto;html=1;exitX=0.5;exitY=1;exitDx=0;exitDy=0;entryX=0.5;entryY=0;entryDx=0;entryDy=0;fontSize=9;" edge="1" parent="1" source="182" target="165">
                    <mxGeometry relative="1" as="geometry"/>
                </mxCell>
                <mxCell id="182" value="Material" style="rounded=0;whiteSpace=wrap;html=1;shadow=1;fontFamily=Lucida Console;" vertex="1" parent="1">
                    <mxGeometry x="140" width="120" height="40" as="geometry"/>
                </mxCell>
                <mxCell id="185" value="Uniform Buffers" style="text;html=1;strokeColor=none;fillColor=none;align=center;verticalAlign=middle;whiteSpace=wrap;rounded=0;shadow=1;fontSize=12;fontStyle=1" vertex="1" parent="1">
                    <mxGeometry x="120" y="250" width="160" height="20" as="geometry"/>
                </mxCell>
            </root>
        </mxGraphModel>
    </diagram>
</mxfile>